<mxfile host="app.diagrams.net" modified="2020-11-16T21:53:28.380Z" agent="5.0 (Windows NT 10.0; Win64; x64) AppleWebKit/537.36 (KHTML, like Gecko) Chrome/86.0.4240.193 Safari/537.36" etag="EpVjQA44A99A954ASF6e" version="13.9.9" type="github">
  <diagram id="i54W5FYEEkuHok6MTSL9" name="Page-1">
    <mxGraphModel dx="1207" dy="607" grid="1" gridSize="10" guides="1" tooltips="1" connect="1" arrows="1" fold="1" page="1" pageScale="1" pageWidth="1169" pageHeight="827" math="0" shadow="0">
      <root>
        <mxCell id="0" />
        <mxCell id="1" parent="0" />
        <mxCell id="T9HUvvSSFN0M-xHOm5Up-12" value="" style="rounded=0;whiteSpace=wrap;html=1;fillColor=#f5f5f5;strokeColor=#666666;fontColor=#333333;" parent="1" vertex="1">
          <mxGeometry x="590" y="90" width="370" height="100" as="geometry" />
        </mxCell>
        <mxCell id="437iehIte6Kq4gXTX7tP-18" style="edgeStyle=orthogonalEdgeStyle;rounded=0;orthogonalLoop=1;jettySize=auto;html=1;dashed=1;" parent="1" source="437iehIte6Kq4gXTX7tP-4" target="437iehIte6Kq4gXTX7tP-8" edge="1">
          <mxGeometry relative="1" as="geometry" />
        </mxCell>
        <mxCell id="437iehIte6Kq4gXTX7tP-21" style="edgeStyle=orthogonalEdgeStyle;rounded=0;orthogonalLoop=1;jettySize=auto;html=1;entryX=0.417;entryY=1;entryDx=0;entryDy=0;dashed=1;entryPerimeter=0;" parent="1" source="437iehIte6Kq4gXTX7tP-4" target="T9HUvvSSFN0M-xHOm5Up-13" edge="1">
          <mxGeometry relative="1" as="geometry">
            <Array as="points">
              <mxPoint x="460" y="220" />
              <mxPoint x="670" y="220" />
            </Array>
          </mxGeometry>
        </mxCell>
        <mxCell id="437iehIte6Kq4gXTX7tP-4" value="Senda PDF Skjal í Undirritun" style="shape=ext;rounded=1;html=1;whiteSpace=wrap;strokeWidth=3;" parent="1" vertex="1">
          <mxGeometry x="396" y="390" width="120" height="80" as="geometry" />
        </mxCell>
        <mxCell id="T9HUvvSSFN0M-xHOm5Up-4" value="" style="rounded=0;whiteSpace=wrap;html=1;fillColor=#f5f5f5;strokeColor=#666666;fontColor=#333333;" parent="1" vertex="1">
          <mxGeometry x="140" y="90" width="370" height="100" as="geometry" />
        </mxCell>
        <mxCell id="T9HUvvSSFN0M-xHOm5Up-9" style="edgeStyle=orthogonalEdgeStyle;rounded=0;orthogonalLoop=1;jettySize=auto;html=1;" parent="1" source="T9HUvvSSFN0M-xHOm5Up-6" target="T9HUvvSSFN0M-xHOm5Up-8" edge="1">
          <mxGeometry relative="1" as="geometry" />
        </mxCell>
        <mxCell id="T9HUvvSSFN0M-xHOm5Up-6" value="Notandi" style="verticalLabelPosition=bottom;html=1;verticalAlign=top;align=center;strokeColor=none;fillColor=#00BEF2;shape=mxgraph.azure.user;" parent="1" vertex="1">
          <mxGeometry x="46" y="115" width="47.5" height="50" as="geometry" />
        </mxCell>
        <mxCell id="zJIO8U-qQt3hI1yP-4Sh-4" style="edgeStyle=orthogonalEdgeStyle;rounded=0;orthogonalLoop=1;jettySize=auto;html=1;dashed=1;" edge="1" parent="1" source="T9HUvvSSFN0M-xHOm5Up-8" target="437iehIte6Kq4gXTX7tP-1">
          <mxGeometry relative="1" as="geometry">
            <Array as="points">
              <mxPoint x="230" y="370" />
              <mxPoint x="95" y="370" />
            </Array>
          </mxGeometry>
        </mxCell>
        <mxCell id="T9HUvvSSFN0M-xHOm5Up-8" value="Stofnar samgöngusamning" style="rounded=1;whiteSpace=wrap;html=1;" parent="1" vertex="1">
          <mxGeometry x="170" y="110" width="120" height="60" as="geometry" />
        </mxCell>
        <mxCell id="T9HUvvSSFN0M-xHOm5Up-13" value="PDF skjal til undirritunar" style="rounded=1;whiteSpace=wrap;html=1;" parent="1" vertex="1">
          <mxGeometry x="620" y="110" width="120" height="60" as="geometry" />
        </mxCell>
        <mxCell id="T9HUvvSSFN0M-xHOm5Up-19" style="edgeStyle=orthogonalEdgeStyle;rounded=0;orthogonalLoop=1;jettySize=auto;html=1;" parent="1" source="T9HUvvSSFN0M-xHOm5Up-17" target="T9HUvvSSFN0M-xHOm5Up-18" edge="1">
          <mxGeometry relative="1" as="geometry" />
        </mxCell>
        <mxCell id="T9HUvvSSFN0M-xHOm5Up-17" value="Notandi" style="verticalLabelPosition=bottom;html=1;verticalAlign=top;align=center;strokeColor=none;fillColor=#00BEF2;shape=mxgraph.azure.user;" parent="1" vertex="1">
          <mxGeometry x="1000" y="115" width="47.5" height="50" as="geometry" />
        </mxCell>
        <mxCell id="437iehIte6Kq4gXTX7tP-23" style="edgeStyle=orthogonalEdgeStyle;rounded=0;orthogonalLoop=1;jettySize=auto;html=1;entryX=0.5;entryY=0;entryDx=0;entryDy=0;dashed=1;exitX=0.75;exitY=1;exitDx=0;exitDy=0;" parent="1" source="T9HUvvSSFN0M-xHOm5Up-18" target="437iehIte6Kq4gXTX7tP-8" edge="1">
          <mxGeometry relative="1" as="geometry">
            <Array as="points">
              <mxPoint x="890" y="330" />
              <mxPoint x="666" y="330" />
            </Array>
          </mxGeometry>
        </mxCell>
        <mxCell id="T9HUvvSSFN0M-xHOm5Up-18" value="Undirritun" style="rounded=1;whiteSpace=wrap;html=1;" parent="1" vertex="1">
          <mxGeometry x="800" y="110" width="120" height="60" as="geometry" />
        </mxCell>
        <mxCell id="T9HUvvSSFN0M-xHOm5Up-23" value="PDF skjal komip sem viðhengi á samgöngusamning" style="rounded=1;whiteSpace=wrap;html=1;" parent="1" vertex="1">
          <mxGeometry x="360" y="110" width="120" height="60" as="geometry" />
        </mxCell>
        <mxCell id="T9HUvvSSFN0M-xHOm5Up-31" value="" style="shape=image;verticalLabelPosition=bottom;labelBackgroundColor=#ffffff;verticalAlign=top;aspect=fixed;imageAspect=0;image=data:image/svg+xml,PHN2ZyB4bWxucz0iaHR0cDovL3d3dy53My5vcmcvMjAwMC9zdmciIHhtbG5zOnhsaW5rPSJodHRwOi8vd3d3LnczLm9yZy8xOTk5L3hsaW5rIiB2ZXJzaW9uPSIxLjEiIGlkPSJMYXllcl8xIiB4PSIwcHgiIHk9IjBweCIgdmlld0JveD0iMCAwIDI2MiAxODQiIHN0eWxlPSJlbmFibGUtYmFja2dyb3VuZDpuZXcgMCAwIDI2MiAxODQ7IiB4bWw6c3BhY2U9InByZXNlcnZlIj4mI3hhOzxzdHlsZSB0eXBlPSJ0ZXh0L2NzcyI+JiN4YTsJLnN0MHtmaWxsOiMwMEExRTA7fSYjeGE7CS5zdDF7ZmlsbDojRkZGRkZGO30mI3hhOzwvc3R5bGU+JiN4YTs8dGl0bGU+bG9nby1zYWxlc2ZvcmNlPC90aXRsZT4mI3hhOzxkZXNjPkNyZWF0ZWQgd2l0aCBTa2V0Y2guPC9kZXNjPiYjeGE7PGcgaWQ9IlRlc3QtQiI+JiN4YTsJPGcgaWQ9Ik1vYmlsZS1OYXYtLS1UZXN0LUItX3gyOF8wX3gyOV8iPiYjeGE7CQk8ZyBpZD0iR3JvdXAiPiYjeGE7CQkJPGcgaWQ9ImxvZ28tc2FsZXNmb3JjZSI+JiN4YTsJCQkJPHBhdGggaWQ9IkZpbGwtMSIgY2xhc3M9InN0MCIgZD0iTTEwOS4yLDIwLjljOC40LTguNywyMC4xLTE0LjIsMzMtMTQuMmMxNy4yLDAsMzIuMSw5LjYsNDAuMSwyMy44YzYuOS0zLjEsMTQuNi00LjgsMjIuNy00LjggICAgICBjMzEsMCw1NiwyNS4zLDU2LDU2LjVzLTI1LjEsNTYuNS01Niw1Ni41Yy0zLjgsMC03LjUtMC40LTExLTEuMWMtNywxMi41LTIwLjQsMjEtMzUuOCwyMWMtNi40LDAtMTIuNS0xLjUtMTcuOS00LjEgICAgICBjLTcuMSwxNi43LTIzLjcsMjguNS00MywyOC41Yy0yMC4xLDAtMzcuMy0xMi43LTQzLjktMzAuNmMtMi45LDAuNi01LjksMC45LTguOSwwLjljLTI0LDAtNDMuNC0xOS42LTQzLjQtNDMuOSAgICAgIGMwLTE2LjIsOC43LTMwLjQsMjEuNy0zOGMtMi43LTYuMS00LjItMTIuOS00LjItMjAuMUMxOC41LDIzLjYsNDEuMiwxLDY5LDFDODUuNCwxLDEwMCw4LjgsMTA5LjIsMjAuOSIvPiYjeGE7CQkJCTxwYXRoIGlkPSJDb21iaW5lZC1TaGFwZSIgY2xhc3M9InN0MSIgZD0iTTM4LjcsOTUuNGwxLjEtMi45YzAuMi0wLjUsMC41LTAuMywwLjctMC4yYzAuMywwLjIsMC41LDAuMywwLjksMC42YzMuMSwyLDYsMiw2LjksMiAgICAgIGMyLjMsMCwzLjgtMS4yLDMuOC0yLjl2LTAuMWMwLTEuOC0yLjItMi41LTQuOC0zLjNsLTAuNi0wLjJjLTMuNS0xLTcuMy0yLjUtNy4zLTYuOXYtMC4xYzAtNC4yLDMuNC03LjIsOC4zLTcuMmwwLjUsMCAgICAgIGMyLjksMCw1LjYsMC44LDcuNiwyLjFjMC4yLDAuMSwwLjQsMC4zLDAuMywwLjZjLTAuMSwwLjMtMSwyLjYtMS4xLDIuOWMtMC4yLDAuNS0wLjcsMC4yLTAuNywwLjJjLTEuOC0xLTQuNS0xLjctNi44LTEuNyAgICAgIGMtMi4xLDAtMy40LDEuMS0zLjQsMi42djAuMWMwLDEuNywyLjMsMi41LDQuOSwzLjNsMC41LDAuMWMzLjUsMS4xLDcuMiwyLjYsNy4yLDYuOXYwLjFjMCw0LjYtMy4zLDcuNC04LjYsNy40ICAgICAgYy0yLjYsMC01LjEtMC40LTcuOC0xLjhjLTAuNS0wLjMtMS0wLjUtMS41LTAuOUMzOC43LDk1LjksMzguNSw5NS44LDM4LjcsOTUuNHogTTExNi43LDk1LjRsMS4xLTIuOWMwLjItMC41LDAuNi0wLjMsMC43LTAuMiAgICAgIGMwLjMsMC4yLDAuNSwwLjMsMC45LDAuNmMzLjEsMiw2LDIsNi45LDJjMi4zLDAsMy44LTEuMiwzLjgtMi45di0wLjFjMC0xLjgtMi4yLTIuNS00LjgtMy4zbC0wLjYtMC4yYy0zLjUtMS03LjMtMi41LTcuMy02LjkgICAgICB2LTAuMWMwLTQuMiwzLjQtNy4yLDguMy03LjJsMC41LDBjMi45LDAsNS42LDAuOCw3LjYsMi4xYzAuMiwwLjEsMC40LDAuMywwLjMsMC42Yy0wLjEsMC4zLTEsMi42LTEuMSwyLjkgICAgICBjLTAuMiwwLjUtMC43LDAuMi0wLjcsMC4yYy0xLjgtMS00LjUtMS43LTYuOC0xLjdjLTIuMSwwLTMuNCwxLjEtMy40LDIuNnYwLjFjMCwxLjcsMi4zLDIuNSw0LjksMy4zbDAuNSwwLjEgICAgICBjMy41LDEuMSw3LjIsMi42LDcuMiw2Ljl2MC4xYzAsNC42LTMuMyw3LjQtOC42LDcuNGMtMi42LDAtNS4xLTAuNC03LjgtMS44Yy0wLjUtMC4zLTEtMC41LTEuNS0wLjkgICAgICBDMTE2LjgsOTUuOSwxMTYuNiw5NS44LDExNi43LDk1LjR6IE0xNzQuNSw4MS43YzAuNCwxLjUsMC43LDMuMSwwLjcsNC44cy0wLjIsMy4zLTAuNyw0LjhjLTAuNCwxLjUtMS4xLDIuOC0yLDMuOSAgICAgIGMtMC45LDEuMS0yLjEsMi0zLjQsMi42Yy0xLjQsMC42LTMsMC45LTQuOCwwLjljLTEuOCwwLTMuNC0wLjMtNC44LTAuOWMtMS40LTAuNi0yLjUtMS41LTMuNC0yLjZjLTAuOS0xLjEtMS42LTIuNC0yLTMuOSAgICAgIGMtMC40LTEuNS0wLjctMy4xLTAuNy00LjhjMC0xLjcsMC4yLTMuMywwLjctNC44YzAuNC0xLjUsMS4xLTIuOCwyLTMuOWMwLjktMS4xLDIuMS0yLDMuNC0yLjZjMS40LTAuNiwzLTEsNC44LTEgICAgICBjMS44LDAsMy40LDAuMyw0LjgsMWMxLjQsMC42LDIuNSwxLjUsMy40LDIuNkMxNzMuNCw3OC45LDE3NC4xLDgwLjIsMTc0LjUsODEuN3ogTTE3MCw4Ni40YzAtMi42LTAuNS00LjYtMS40LTYgICAgICBjLTAuOS0xLjQtMi40LTIuMS00LjMtMi4xYy0yLDAtMy40LDAuNy00LjMsMi4xYy0wLjksMS40LTEuNCwzLjQtMS40LDZjMCwyLjYsMC41LDQuNiwxLjQsNi4xYzAuOSwxLjQsMi4zLDIuMSw0LjMsMi4xICAgICAgYzIsMCwzLjQtMC43LDQuMy0yLjFDMTY5LjYsOTEuMSwxNzAsODksMTcwLDg2LjR6IE0yMTEuMSw5My45bDEuMSwzYzAuMSwwLjQtMC4yLDAuNS0wLjIsMC41Yy0xLjcsMC43LTQsMS4xLTYuMywxLjEgICAgICBjLTMuOSwwLTYuOC0xLjEtOC44LTMuM2MtMi0yLjItMy01LjItMy04LjljMC0xLjcsMC4yLTMuMywwLjctNC44YzAuNS0xLjUsMS4yLTIuOCwyLjItMy45YzEtMS4xLDIuMi0yLDMuNi0yLjYgICAgICBjMS40LTAuNiwzLjEtMSw1LTFjMS4zLDAsMi40LDAuMSwzLjMsMC4yYzEsMC4yLDIuNCwwLjUsMywwLjhjMC4xLDAsMC40LDAuMiwwLjMsMC41Yy0wLjQsMS4yLTAuNywyLTEuMSwzICAgICAgYy0wLjIsMC41LTAuNSwwLjMtMC41LDAuM2MtMS41LTAuNS0yLjktMC43LTQuNy0wLjdjLTIuMiwwLTMuOSwwLjctNC45LDIuMmMtMS4xLDEuNC0xLjcsMy4zLTEuNyw1LjljMCwyLjgsMC43LDQuOCwxLjksNi4xICAgICAgYzEuMiwxLjMsMi45LDEuOSw1LjEsMS45YzAuOSwwLDEuNy0wLjEsMi40LTAuMmMwLjctMC4xLDEuNC0wLjMsMi4xLTAuNkMyMTAuNSw5My42LDIxMC45LDkzLjUsMjExLjEsOTMuOXogTTIzMy44LDgwLjggICAgICBjMSwzLjQsMC41LDYuMywwLjQsNi41YzAsMC40LTAuNCwwLjQtMC40LDAuNGwtMTUuMSwwYzAuMSwyLjMsMC42LDMuOSwxLjgsNWMxLjEsMS4xLDIuOCwxLjgsNS4yLDEuOGMzLjYsMCw1LjEtMC43LDYuMi0xLjEgICAgICBjMCwwLDAuNC0wLjEsMC42LDAuM2wxLDIuOGMwLjIsMC41LDAsMC42LTAuMSwwLjdjLTAuOSwwLjUtMy4yLDEuNS03LjYsMS41Yy0yLjEsMC00LTAuMy01LjUtMC45Yy0xLjUtMC42LTIuOC0xLjQtMy44LTIuNSAgICAgIGMtMS0xLjEtMS43LTIuNC0yLjItMy44Yy0wLjUtMS41LTAuNy0zLjEtMC43LTQuOGMwLTEuNywwLjItMy4zLDAuNy00LjhjMC40LTEuNSwxLjEtMi44LDItMy45YzAuOS0xLjEsMi4xLTIsMy41LTIuNiAgICAgIGMxLjQtMC43LDMuMS0xLDUtMWMxLjYsMCwzLjEsMC4zLDQuMywwLjljMC45LDAuNCwxLjksMS4xLDIuOSwyLjJDMjMyLjUsNzcuOSwyMzMuNCw3OS40LDIzMy44LDgwLjh6IE0yMTguOCw4NGgxMC43ICAgICAgYy0wLjEtMS40LTAuNC0yLjYtMS0zLjZjLTAuOS0xLjQtMi4yLTIuMi00LjItMi4yYy0yLDAtMy40LDAuOC00LjMsMi4yQzIxOS40LDgxLjMsMjE5LjEsODIuNSwyMTguOCw4NHogTTExMy4xLDgwLjggICAgICBjMSwzLjQsMC41LDYuMywwLjUsNi41YzAsMC40LTAuNCwwLjQtMC40LDAuNGwtMTUuMSwwYzAuMSwyLjMsMC42LDMuOSwxLjgsNWMxLjEsMS4xLDIuOCwxLjgsNS4yLDEuOGMzLjYsMCw1LjEtMC43LDYuMi0xLjEgICAgICBjMCwwLDAuNC0wLjEsMC42LDAuM2wxLDIuOGMwLjIsMC41LDAsMC42LTAuMSwwLjdjLTAuOSwwLjUtMy4yLDEuNS03LjYsMS41Yy0yLjEsMC00LTAuMy01LjUtMC45Yy0xLjUtMC42LTIuOC0xLjQtMy44LTIuNSAgICAgIGMtMS0xLjEtMS43LTIuNC0yLjItMy44Yy0wLjUtMS41LTAuNy0zLjEtMC43LTQuOGMwLTEuNywwLjItMy4zLDAuNy00LjhjMC40LTEuNSwxLjEtMi44LDItMy45YzAuOS0xLjEsMi4xLTIsMy41LTIuNiAgICAgIGMxLjQtMC43LDMuMS0xLDUtMWMxLjYsMCwzLjEsMC4zLDQuMywwLjljMC45LDAuNCwxLjksMS4xLDIuOSwyLjJDMTExLjgsNzcuOSwxMTIuOCw3OS40LDExMy4xLDgwLjh6IE05OC4xLDg0aDEwLjggICAgICBjLTAuMS0xLjQtMC40LTIuNi0xLTMuNmMtMC45LTEuNC0yLjItMi4yLTQuMi0yLjJjLTIsMC0zLjQsMC44LTQuMywyLjJDOTguNyw4MS4zLDk4LjQsODIuNSw5OC4xLDg0eiBNNzEuNiw4My4yICAgICAgYzAsMCwxLjIsMC4xLDIuNSwwLjN2LTAuNmMwLTItMC40LTMtMS4yLTMuNmMtMC44LTAuNi0yLjEtMS0zLjctMWMwLDAtMy43LDAtNi42LDEuNWMtMC4xLDAuMS0wLjIsMC4xLTAuMiwwLjEgICAgICBzLTAuNCwwLjEtMC41LTAuMmwtMS4xLTIuOWMtMC4yLTAuNCwwLjEtMC42LDAuMS0wLjZjMS40LTEuMSw0LjYtMS43LDQuNi0xLjdjMS4xLTAuMiwyLjktMC40LDQtMC40YzMsMCw1LjMsMC43LDYuOSwyLjEgICAgICBjMS42LDEuNCwyLjQsMy42LDIuNCw2LjdsMCwxMy44YzAsMCwwLDAuNC0wLjMsMC41YzAsMC0wLjYsMC4yLTEuMSwwLjNjLTAuNSwwLjEtMi4zLDAuNS0zLjgsMC43Yy0xLjUsMC4zLTMsMC40LTQuNiwwLjQgICAgICBjLTEuNSwwLTIuOC0wLjEtNC0wLjRjLTEuMi0wLjMtMi4yLTAuNy0zLjEtMS4zYy0wLjgtMC42LTEuNS0xLjQtMi0yLjRjLTAuNS0wLjktMC43LTIuMS0wLjctMy40YzAtMS4zLDAuMy0yLjUsMC44LTMuNSAgICAgIGMwLjUtMSwxLjMtMS44LDIuMi0yLjVjMC45LTAuNywyLTEuMSwzLjEtMS41YzEuMi0wLjMsMi40LTAuNSwzLjctMC41QzcwLjIsODMuMiw3MSw4My4yLDcxLjYsODMuMnogTTY1LjYsOTMuOCAgICAgIGMwLDAsMS40LDEuMSw0LjQsMC45YzIuMi0wLjEsNC4xLTAuNSw0LjEtMC41di02LjljMCwwLTEuOS0wLjMtNC4xLTAuM2MtMy4xLDAtNC40LDEuMS00LjQsMS4xYy0wLjksMC42LTEuMywxLjYtMS4zLDIuOSAgICAgIGMwLDAuOCwwLjIsMS41LDAuNSwyQzY0LjksOTMuMiw2NSw5My40LDY1LjYsOTMuOHogTTE5My4xLDc1LjVjLTAuMSwwLjQtMC45LDIuNS0xLjEsMy4yYy0wLjEsMC4zLTAuMywwLjQtMC42LDAuNCAgICAgIGMwLDAtMC45LTAuMi0xLjctMC4yYy0wLjUsMC0xLjMsMC4xLTIsMC4zYy0wLjcsMC4yLTEuMywwLjYtMS45LDEuMWMtMC42LDAuNS0xLDEuMy0xLjMsMi4yYy0wLjMsMC45LTAuNSwyLjQtMC41LDR2MTEuMiAgICAgIGMwLDAuMy0wLjIsMC41LTAuNSwwLjVoLTRjLTAuMywwLTAuNS0wLjItMC41LTAuNVY3NS4yYzAtMC4zLDAuMi0wLjUsMC40LTAuNWgzLjljMC4zLDAsMC40LDAuMiwwLjQsMC41Vjc3ICAgICAgYzAuNi0wLjgsMS42LTEuNSwyLjUtMS45YzAuOS0wLjQsMi0wLjcsMy45LTAuNmMxLDAuMSwyLjMsMC4zLDIuNSwwLjRDMTkzLDc1LDE5My4yLDc1LjEsMTkzLjEsNzUuNXogTTE1Niw2NS4xICAgICAgYzAuMSwwLDAuNCwwLjIsMC4zLDAuNWwtMS4yLDMuMmMtMC4xLDAuMi0wLjIsMC40LTAuNywwLjJjLTAuMSwwLTAuMy0wLjEtMC44LTAuMmMtMC4zLTAuMS0wLjgtMC4xLTEuMi0wLjEgICAgICBjLTAuNiwwLTEuMSwwLjEtMS42LDAuMmMtMC41LDAuMS0wLjksMC40LTEuMywwLjhjLTAuNCwwLjQtMC44LDAuOS0xLjEsMS42Yy0wLjYsMS42LTAuOCwzLjMtMC44LDMuNGg0LjggICAgICBjMC40LDAsMC41LDAuMiwwLjUsMC41bC0wLjYsMy4xYy0wLjEsMC41LTAuNSwwLjQtMC41LDAuNGgtNUwxNDMuNiw5OGMtMC40LDItMC44LDMuNy0xLjMsNS4xYy0wLjUsMS40LTEuMSwyLjQtMiwzLjQgICAgICBjLTAuOCwwLjktMS43LDEuNi0yLjgsMS45Yy0xLDAuNC0yLjMsMC42LTMuNywwLjZjLTAuNywwLTEuNCwwLTIuMi0wLjJjLTAuNi0wLjEtMC45LTAuMi0xLjQtMC40Yy0wLjItMC4xLTAuMy0wLjMtMC4yLTAuNiAgICAgIGMwLjEtMC4zLDEtMi43LDEuMS0zLjFjMC4yLTAuNCwwLjUtMC4yLDAuNS0wLjJjMC4zLDAuMSwwLjUsMC4yLDAuOCwwLjNjMC40LDAuMSwwLjgsMC4xLDEuMiwwLjFjMC43LDAsMS4zLTAuMSwxLjgtMC4zICAgICAgYzAuNi0wLjIsMS0wLjYsMS40LTEuMWMwLjQtMC41LDAuNy0xLjIsMS4xLTIuMWMwLjMtMC45LDAuNi0yLjIsMC45LTMuN2wzLjQtMTguOWgtMy4zYy0wLjQsMC0wLjUtMC4yLTAuNS0wLjVsMC42LTMuMSAgICAgIGMwLjEtMC41LDAuNS0wLjQsMC41LTAuNGgzLjRsMC4yLTFjMC41LTMsMS41LTUuMywzLTYuOGMxLjUtMS41LDMuNy0yLjMsNi40LTIuM2MwLjgsMCwxLjUsMC4xLDIuMSwwLjIgICAgICBDMTU1LDY0LjgsMTU1LjUsNjQuOSwxNTYsNjUuMXogTTg4LjYsOTcuNmMwLDAuMy0wLjIsMC41LTAuNCwwLjVoLTRjLTAuMywwLTAuNC0wLjItMC40LTAuNVY2NS41YzAtMC4yLDAuMi0wLjUsMC40LTAuNWg0ICAgICAgYzAuMywwLDAuNCwwLjIsMC40LDAuNVY5Ny42eiIvPiYjeGE7CQkJPC9nPiYjeGE7CQk8L2c+JiN4YTsJPC9nPiYjeGE7PC9nPiYjeGE7PC9zdmc+;" parent="1" vertex="1">
          <mxGeometry x="170" y="10" width="128.15" height="90" as="geometry" />
        </mxCell>
        <mxCell id="T9HUvvSSFN0M-xHOm5Up-34" value="" style="shape=image;verticalLabelPosition=bottom;labelBackgroundColor=#ffffff;verticalAlign=top;aspect=fixed;imageAspect=0;image=data:image/png,iVBORw0KGgoAAAANSUhEUgAAAKAAAAA2CAYAAABA8JJzAAAAAXNSR0IArs4c6QAAAARnQU1BAACxjwv8YQUAAAAJcEhZcwAADsMAAA7DAcdvqGQAAAAhdEVYdENyZWF0aW9uIFRpbWUAMjAyMDoxMToxNiAxNjo1OToyN1/Wv44AABBqSURBVHhe7Z0PeFPV3cd/IH9a5p8WK6aTgsE6ba1Kgfk2ZXOSihvlce8Mso32YbMEeYftu2eOyh6I4CN2uLEA/mllaoqvsLYqa33Et0HBFhmQANIEqKbIn6aUlhQoJm2BBFr62zk3J+3Nzc3ftnTA/fj85NxzTu693PvN7/z7nTAECSAhMUgMZX9KSAwKkgAlBhVJgBKDiiRAiUFlwAWot37HUhISvgyYAC92dsOf/mWFpz6xwKMfHIQ9tg5WIiHRy4AIcP3XLZD03n5ouXAZ6nKmwC/ujYPHNx2CxTus4OrqZrUkJAD6dR5wd3M7vGw8Ae2Xr8BLivEwQx7LSgBOtF+CZbsbuDqvTB0PWUljWInEjUy/CLDV2UmE1wj/sJwhwhsHf5h8Fyvx5ZNj54gQT8C9sdGcEJNvH8VKJG5E+twEF5pPkea2Brq6kTS3kwOKj/LfibfDod9OgofiRsHEDSZ4ZU8jK5G4EYnYA247YYeXDY0w4qYhXHP7k4TbWEno1LZegOXEGza0uWDF1LvhyXtGsxKJG4WwBdhI+nK0n/eZ1Q4vpY+DBQ/Fs5LI2Uia7uWkf/hYQgwR4nhIuGUkK5G43gmrCV71VRM3uo0ZOQzq5k3pF/FR5iaPgW+emQyjo4bBA/9XA6+bmlmJxPVOSB6QDhzoIOP73xvBeb0fym5hJf2P4VQ7N0jpvNLNNcuPRdC0DxhdLVC9UQulZWawjk2FrLn5oJ4mY4USEUEF6I+6cxfw1/9fh4m6fbjxm9Ms9+pQaG7G0YUG/N+qY2h3dbLcwcSOlQtl9MvKMxnmbrazcolIEPWANOP57cfhrQM2+N3D8ZA/ZSwMGzrEXXgVOXOxE7T7m7gBzzMP3Al/fVTOSiLD1WSEio/LofpTMxhqq6GuhRUkKkApT4bU6QpI/3E6KCcmQUwUK/Pg0ENe7EwoYoc9LKwE+1uZEMMOJcLDbxM8Yu0uGEI0R2U38qahgyJACp3ecV0ht0hu89LzP2K5YdJqhNXPZUP+JivLCIYc1JsNoHuS17y2VEB2/CwoZYc9zC0H2wYV3JgNsRVKVRMg+2P3UYERQZPmTocMFaAYw9fsxAnv7sPFO+ox4e29+LttR7HN1cVKB56GNif+Rn+Yu/atr+/G20lzHBHWEsyS8ZvN0ExVamMn8FCPuhm+9TLX17PyGxEDanjPgggwbAKOghf/cCy3dHbwt5Ogm3ighzbUwAeHz7LSgUNLRtvJ79XAmFEj4OkfxMFPJ8TC8Eg8sMsMf56TDaWeppaHPE0JyuluSwrJfRGvuMEA2hwFSRFIs61eZYCSnL51C65pDhhAz5IRw4ToA/WArq4rOLX0AOoOub3Bx0db8b7irzjPdOr8JS6vP9li/Q4f+YcZf/bPWtxra+cGQfQ+tjfaUfZW+F8ve4Xay1tRk83Voeksq8DDtDLVq56vB5TwxndQ1u8ekLL0vxLg1b0niQcE+AVbRhsdPRweft/ERb30B03nL4H68yMwn9j/PCyDLbNS4BHZLdx184kXvvtW4YggFBxg2FbM0h5UsHqlGlLj2CEPeUo6S0kEhU5HvZoN6nV9f/9BBZg5YTSkjrmZiMG9ZjuCDEjWPjYBSmbeB4VmG8z+tA6OO1xcWSS8VtMMD5Dm9tYRw8CSMwXmpbjbwy9PtsHWBgcseSSBOw4fK5hZ57iXSSAfy5ICYhLkkMrSPjSUwiwyIhsiZq8YWSURyIsyf1wM+fMyIEMxgX0mHpKV5HhePqz+22pR0x8jn/V3Td71HIf1ULx4vve5f54HRVus5OsXAg4r6N/Lh/lPpMMEz/njkyHjl3mwuswILV2sngeHEYqemwnJCfGQsVQPQvm9qGDn6DEyaGtihf5gntAHTxNMqWnpwFGv7cLmDt9mV7PTypW9aWpmOaGxrcGO6aR5f/yjQ7i7uY3l9vLEplp8vcZ9TqvDGUETbMACXvPgtkzUHWXFPtjRUl2FVcTK12tRZ+TN7xkLBOfh2QrxwZF9qwaVEQx+qHFNmb9rzi7BelsVamfLxcuZKch9Od23IoITLevVSHqvop/tsUQ16up4ZzlZgiqxen5NhSUn2Wf9EJIAKXlfHONMjF1NbfijsgM4o7wWD509z3LFsZG+44KtRzhBvX3wFMv1pqzuDE58v4YdRSrAeix5SuShpOViSW14k8c20pckftn3XNREBOgk4lGI1Q3RqAADXjMkS0Wtmd2QF040rFSGfm5ZLlZ6+syDKUDq/b73+i7OG/rjz3sauc/9Za/4VamX9KxufOf0v7rxEBHfh4fPsKNIBUh84ArhykWvyWfkora0Ci1n/fsJL5w2NKxR+Z5LKEAn8bwTBXVkWagz80Rvq0TNNO97U6wxsUIe/q4ZoqWKnNO5U4OkqyGoK8fMhRrUrtKgWnBf1GRLqpg3daLdbuescol3HWoavbuMb8GebsgCpBQYG3HWJxZ2JI7pdAfXfP7kg4NoPNXO5W1vdOCj5PixDw/ijpMOLs8fr9U04U/JKJhPpALEozrMFDwkMZOlZGLuG5VEjOxz/hBrFgUCdFZrBN5Fhou2irwG4b3JNFgl9rZEm2IZKp8txMo6j6jt5Mum8K23sJKU8BGby5RhbgW/llgd4gUFjYZhhbBOZKPgsATY3Y14j24fVh4/x3L8s3Z/E45YuxPvKDJiHLEis3hzy6ftUhfeSYQmFGnEAiTUfxRCX6fH5KhaVYU2f845BAHWv6MU1FkkLiz6oqfz64G4UMWuuUyk30kErRTWI/1Fr8kks9bX+03XkTvxxr4517sOMc1OVsjoLwGGFY5FBjawlIxKV+49yXL8QyOjd/zqYejovAKWZybDcxODh27RaZefyUfDo2P7LwJGPlsHptoSWBRS1IoVKhZnQOq8UpKKjJaWapbyEAvRorNI0RAtWEC2toY0dgUYzv7kExUddD3aWmsAM0v38ONk98Q6j5ikVCBi9qLuZP9MuQkJS4CUeQ+SF0mEWFwb/IbuiYniVjDuGCX2xLw5YnfC6v1N3LxjfxOTkgXaahvY6ypB94IaFImswA8tG7Mhe63PqwqJqGFCoZPriurKCtadLHmVaGmoYKleVLIYcDgc3uYiz4yVezA02FiqfwlbgBTqBT2T04EgLTwXzBAK9Hx/nHIX/CA2muX0PzH3Z4J6lQ4MRxGcZy1QVVoAWWzeUYhxlR4CzPD5RZ4yi6U8FEHxp77+1FpWCIWC73BSQiheOlJaiAdkSR4VC5IhNjbW2x6cD0KptnRFPtcbiIgEyE1O39k7Oe0Pun5Mm+1g/KupjfsFhcgnncMnKi4JlHM0UFJbB5Z3snyjWVpMYG1g6TCIUShBzdIeKn6TATOfK4KK7dVQvb0CihZkQHpWqfdErkwDyiksfQMRkQApVCy0L3jq/GWW4wt1kEND8IHU+9Hz3TZyGMvpO449xb6rC6LEQNKzRVCUww57qABrJN2eOBVoSoWCtoJ+XR7MoisgylmQ9261YBVBBllr1KCMZMXxGidiAU4iHpD2B6l4/ME1wUH0t+nbVk7EwbZzhovLqof8xfk9VmIOpKYYiPcJakmFqAgFIZ9TDNWli0AZUouqgNzSaiieM9BRNTKQP8iSPFQb6ulMSHBbpmCf6F8iFiCF9gXf+6YFTKfPsxxvyG0H9X+v7muEJQMw8BBSWhtoXGsFi0+HLx2S7mbJsIki/zl6PaiMNPdpfIHJIGmaGhatrwTLWQMUzkki9QeepIm5LNVLRVl1xCN+IU7h2nEI9EmA8TePIOIZ53dahg5S6KK0P940n4K46OHw6/vvYDkDyB4T1LGkNw4wr82DF7ewQw85SkiPKM7eBXXvZpM+XjF7samg2WSCKiPf09jAUq0DbU4mJIlE5gwUYv1T2DIfsmlggcgYw9VSB9Vlq6F4v2+h72gfQL/VSP72AoKIsk8CpNBpkwNnz0Nlve/PsLn7gOKc77zCNd9LiYCvCtvyIJlGejxB+mDL3f1CGqWSHB8Lk/4ojOxQgPb3qoj2ebi2vQjKBbwBxv1ycBmLoXQLHYC4zXi4hU15DMzI0i+kf5q7xrcpNb46E+Kjh8AEBemjPkH7qckQTxxHNH1eWfkw/y29T3RNfKJwphDA/IoKJv2cfJnZs02/dwjkbQkyt0m+kaLQlZCTHS52FJjiWhsXuCqkoc3FrWyIsXSnFefqD7OjwOxv6cCYN0Vm/wNgK410DVWO6o+81wbs1QWomq5ERaJ4fQUpU62oQjvasHyuWJ1AJkPSHCNpjrGev9xVqwt6TfUaQ+9Sm2igAD03ubeF5bzVjnosmet/jVzcRKKIQlzm9F0O9EZUgK0XL+O0Dw9hXJEBi8yhhVlNLeuNnPbALaGt28OOejlqv8gJ3HLuAsvxD13Su+0NA7mfg2Ftz7TrNX5enn+TTVskGikTkpi5ZS8nVi0J9+XyTJaFJVZ2UdE1YIHxl9oCRqoUoNfXt7Mey58PNSKGiHhOAVYe9V0mrF+vCnoOWQq5doDX5tcDUr7kBRF8GSSIoLL+HN7z7j680s0yCMeJAONFBDjvs2/xhR2BN/NsPtaKUzaauMAEGu4VKU6rCasqdKhdlst5FOW0JPdDkyWhkh7nLELtGyVosIou2HKELkBChwm1T/ZBhDnlbo8xkAL0YDNh+XoN5s7me1q311S/oEVdhQnr/Qc/cdi/KkHtQlXPc5WnkWc6Oxc15JlW9QRL+CegAD3QTeJ0V1ruF8c47+iPpzdbsMB4gh0hHrM78ft/9xYgFRMNTvAXjvVN6wX81afuzfDvX+XN8P1ChwEL0npfPvdCqNCppYQiTH/BC9cnIQmQcvrCZW5r5hjSp1t3QDyypea0d+Q0bWrHCgQ4s/xrXP1VEzvqhUbe0H4hbZqX727ALr4rvWYQbNRJ06JIlJ8bJ+kxmnUiW0aDB3FeT4Q8Ch4zajisezwRymbeDyV1ZyBjUy3sam5npW4mjfGenCb69pqGKT/SCg3tLm7Nlw/d3HTf+v3cr6h+/cxkeDl9PNw0SBvh+4TDAHr+Rp3p6f73mUTFgGyiEpTCyWHZJEjys2/luoQJMWzofg06Mv294Ldb6HZNT+T04e8u4ri397ISxMmkT1di6W1Wab9S+dEhTCsxo570Ia95bOWYxfdmMiVqKixoE+lHOW0WrFyZ6dOJTw24l+P6I2IBUqjYnt16hBtovH2wdwRcsMcdOU339Y5/xy1A2o/MIGKjnGx3cZ+jwarhbmb6z0b81xNCtjQyWAjS6b/e6JMAPWxtsKOC7nDb5N7hRntvNHL676SvKH9nH17ovIJ3kb7gFyfs3H4R6iH/UH0czwXYF3LNYq3EXN4gJFSTzy5EU/BB43XHEPo/8gD6BbrHd7nhBKhTZHBvbBQU154Gx6Uu7hfxaciVw9UF428dCcsUA/sbg4NOlwPqtpVD8aZSMOysBqNoJA5dD04H5YxZoHoqE5SJEa37XfP0qwApzecvwUu7T8BnDXYYPnQotF/uhI7L3TCOCK9g6t1XZ933PxCXw9G7TjosBmJuZukbnH4XoIfPiQDn6r/lPOC0hBj4/OkUViIh0cuACdCD5dxF6d8CkfDLgAtQQiIQfQ7HkpDoC5IAJQYVSYASgwjAvwEi0LM07DbeiQAAAABJRU5ErkJggg==;" parent="1" vertex="1">
          <mxGeometry x="720" y="28" width="160" height="54" as="geometry" />
        </mxCell>
        <mxCell id="437iehIte6Kq4gXTX7tP-16" style="edgeStyle=orthogonalEdgeStyle;rounded=0;orthogonalLoop=1;jettySize=auto;html=1;dashed=1;" parent="1" source="437iehIte6Kq4gXTX7tP-1" edge="1">
          <mxGeometry relative="1" as="geometry">
            <mxPoint x="170" y="430" as="targetPoint" />
          </mxGeometry>
        </mxCell>
        <mxCell id="437iehIte6Kq4gXTX7tP-1" value="" style="shape=mxgraph.bpmn.shape;html=1;verticalLabelPosition=bottom;labelBackgroundColor=#ffffff;verticalAlign=top;align=center;perimeter=ellipsePerimeter;outlineConnect=0;outline=catching;symbol=message;" parent="1" vertex="1">
          <mxGeometry x="70" y="405" width="50" height="50" as="geometry" />
        </mxCell>
        <mxCell id="437iehIte6Kq4gXTX7tP-17" style="edgeStyle=orthogonalEdgeStyle;rounded=0;orthogonalLoop=1;jettySize=auto;html=1;entryX=0;entryY=0.5;entryDx=0;entryDy=0;dashed=1;" parent="1" source="437iehIte6Kq4gXTX7tP-2" target="437iehIte6Kq4gXTX7tP-4" edge="1">
          <mxGeometry relative="1" as="geometry" />
        </mxCell>
        <mxCell id="437iehIte6Kq4gXTX7tP-2" value="Útbúa PDF Skjal" style="shape=ext;rounded=1;html=1;whiteSpace=wrap;strokeWidth=3;" parent="1" vertex="1">
          <mxGeometry x="174.07999999999998" y="390" width="120" height="80" as="geometry" />
        </mxCell>
        <mxCell id="437iehIte6Kq4gXTX7tP-19" style="edgeStyle=orthogonalEdgeStyle;rounded=0;orthogonalLoop=1;jettySize=auto;html=1;dashed=1;" parent="1" source="437iehIte6Kq4gXTX7tP-8" target="437iehIte6Kq4gXTX7tP-11" edge="1">
          <mxGeometry relative="1" as="geometry" />
        </mxCell>
        <mxCell id="437iehIte6Kq4gXTX7tP-8" value="PDF Skjal undirritað" style="html=1;whiteSpace=wrap;rounded=1;dropTarget=0;" parent="1" vertex="1">
          <mxGeometry x="606" y="390" width="120" height="80" as="geometry" />
        </mxCell>
        <mxCell id="437iehIte6Kq4gXTX7tP-9" value="" style="html=1;shape=message;outlineConnect=0;" parent="437iehIte6Kq4gXTX7tP-8" vertex="1">
          <mxGeometry width="20" height="14" relative="1" as="geometry">
            <mxPoint x="7" y="7" as="offset" />
          </mxGeometry>
        </mxCell>
        <mxCell id="437iehIte6Kq4gXTX7tP-20" style="edgeStyle=orthogonalEdgeStyle;rounded=0;orthogonalLoop=1;jettySize=auto;html=1;dashed=1;" parent="1" source="437iehIte6Kq4gXTX7tP-11" target="437iehIte6Kq4gXTX7tP-14" edge="1">
          <mxGeometry relative="1" as="geometry" />
        </mxCell>
        <mxCell id="437iehIte6Kq4gXTX7tP-22" style="edgeStyle=orthogonalEdgeStyle;rounded=0;orthogonalLoop=1;jettySize=auto;html=1;dashed=1;" parent="1" source="437iehIte6Kq4gXTX7tP-11" target="T9HUvvSSFN0M-xHOm5Up-23" edge="1">
          <mxGeometry relative="1" as="geometry">
            <Array as="points">
              <mxPoint x="860" y="270" />
              <mxPoint x="420" y="270" />
            </Array>
          </mxGeometry>
        </mxCell>
        <mxCell id="437iehIte6Kq4gXTX7tP-11" value="Setja PDF skjal sem viðhengi" style="shape=ext;rounded=1;html=1;whiteSpace=wrap;strokeWidth=3;" parent="1" vertex="1">
          <mxGeometry x="810" y="390" width="120" height="80" as="geometry" />
        </mxCell>
        <mxCell id="437iehIte6Kq4gXTX7tP-14" value="" style="shape=mxgraph.bpmn.shape;html=1;verticalLabelPosition=bottom;labelBackgroundColor=#ffffff;verticalAlign=top;align=center;perimeter=ellipsePerimeter;outlineConnect=0;outline=end;symbol=terminate;" parent="1" vertex="1">
          <mxGeometry x="1000" y="405" width="50" height="50" as="geometry" />
        </mxCell>
        <mxCell id="437iehIte6Kq4gXTX7tP-24" value="Samgöngusamningur" style="swimlane;startSize=20;horizontal=0;" parent="1" vertex="1">
          <mxGeometry x="30" y="350" width="1050" height="170" as="geometry" />
        </mxCell>
        <mxCell id="T9HUvvSSFN0M-xHOm5Up-35" value="" style="shape=image;verticalLabelPosition=bottom;labelBackgroundColor=#ffffff;verticalAlign=top;aspect=fixed;imageAspect=0;image=data:image/png,iVBORw0KGgoAAAANSUhEUgAAAeAAAADwCAYAAADYdbe6AAAABGdBTUEAALGPC/xhBQAAAAFzUkdCAK7OHOkAAAAgY0hSTQAAeiYAAICEAAD6AAAAgOgAAHUwAADqYAAAOpgAABdwnLpRPAAAAAZiS0dEAP8A/wD/oL2nkwAAAAlwSFlzAAAASAAAAEgARslrPgAAOmxJREFUeNrt3XmYXEW5P/DvW3W6sxIIexK2hOmZBJSARL38cAmLCwiyOZLp7hnCFhTlsiOLyFxQVBZBBS8GboyZJYGRRUXZDSqLsigIIek+EwKGhDVgQtbpU/X+/pgBsvQ5vffpnryf5/E+l6lzastMV59TVW8BQgghhBBCCCGEEEIIIYQQQgghhBBCCCGEEEIIIYQQQgghhBBCCCGEEEIIIYQQQgghhBBCCCGEEEIIIYQQQgghhBBCCCGEEEIIIYQQQgghhBBCCCGEEEIIIYQQQgghhBBCCCGEEEIIIYQQQgghhBBCCCGEEEIIIYQQQgghhBBCCCGEEEIIIYQQQgghhBBCCCGEEEIIIYQQQgghhBBCCCGEEEIIIYQQQgghhBBCCCGEEEIIIYQQQgghhBBCCCGEEEIIIYQQQgghhBBCCCGEEEIIIYQQQgghhBBCCCGEEEIIIYQQQgghhBBCCCGEEEIIIYQQQgghhBBCCCGEEEIIIYQQQgghhBBCCCGEEEL4an1+RNhVEEIIURoVdgVEAZpZO/H0lVg/fHjYVRFCCFEaGYDrRcIdpaPpey3Qh57Y22FXRwghRGmcsCsg8jBt4V4K+B1A29nMsOPDro4QQojSyQBc45x4+nNMuBPgHcF0Gnp2Xxd2nYQQQpROXkHXMJ1MtTHwIIAdGXjRZBpmh10nIYQQ5SFPwLWonZXjujcw479B/T8i5u+gh0zYVRNCCFEeFHYFxGZanx+hzbBfg3DCRj992HQ1fiHsqgkhhCgfeQKuJW2L91DG/A6EyRv91CrGhfLoK4QQg4vMAdeISDz1KW3M3wibDL4AMC/T3fhc2PUTQghRXjIA1wCdcJOW6M8AxmySwNhgjLks7PoJIYQoP3kFHaZ2Vk6vezUzX4Qs8/FEdBPmTXol7GoKIYQoP1mEFZYZy4frtatng9Hsc8UKw0Ni6N7zvbCrKoQQovzkCTgM03p3V2tX/xaMA/wuYcaPZPAVQojBSwbgKou0Lppirf0tGGMDLnvZZjI/C7uuQghRF9pZRVO9k4zm/Rg8XoFGWeaVRPSKsfoZdO/thl3FbOQVdBXpROo4gDoA5DhOkFpNV6wz7PqKQaxtYaM26mwGHayAKAN/MZqvwpymZWFXTYi8JdzdHOKzGTgJjJ38LmPwBbar6fqwq7s5eQKuCiYnmb6Cmb6H3F96njVdDV1h11gMXiqZvpAMvg8gSgC4/8eTtKGjTEvqcMxtWhR2HYUINGP5cGft6v9hy2cxMCT3DSoSdpWzkQG40pqXDtND3FnMNC2fy4noAoA47GpvrXQidTqz2j7XdQr0lNfdML8qdUqmTgPTN3JdR+CHvK6mS4KuceLpw5lxjU/yOKWp2wKfqEa7hChK8qUxzuo1jzKhsd7f4coAXEktL++i1bq7wTgovxvoPq8z9mjY1d6aEeh8EDflvpJTAE+q+JeldlZw3UsATMhZI6Lc81yKjwT7f2oR4wC0Ld4Dc/b+d0XbJUQxEu4oxXiAiRvDrko5SCCOCokk3U9o5T0D5Dv4wmh43ymqsNbenXUidUTYbd6aMNDkJHs/X+lynN7FX0Qeg+9ApWzOa6zK/YWBzYic1wgRAof4cgJ/PMdlloCFAB5m4EUwNoRdbz8yAFeAjrvHWOY/A9itgNt+3dc16YViynPYXAzQzZi+ZGjYbd+aMPOMypdhv5n3xYScgyuTfSxHHm9jfWZxpdslRMGmL9mVLc4KuMIS8H3TR7t6XY37mK7GL9iuxo+boXYnbfBAYYUxRZKpyWhekHM6qhTyCrrMVNz9Doh/AEAXcNtaY+zlRRU4bdFYZvomgKHK6zvPAleH3QdbkRPQ2rszOhreqkju8Zf2BPCVvK9nzvkEbLoa79EJ924Ax2VJ9mDpdPTs21eh/hKiaLov82WQ/4IrBp1vumI3bpEwa+L7GeCfgZm3s4qkFx9gwIcT8eGAe5BlGhGJOp/KAO9Wqk3yBFwuzQuiOpH+PyL+EQobfEFMN2LexOXFFOtofR6AoQP5XIJpi8YWk48oSlQZ21apzB1yTkNBv0uU+xU0iM2yZV8n8JUAVgz8kMH0DDEOM92x31a0x4QoGh3im8KUtl0NPy0mVx1Pz9Ku+4ol+8zA5/fhyLlVtDzkCbgcWnt31pbvAvjgIu5+0xtqflRsuWw3eUU5Umv1AwOcHHaXbC1I4RsAX1/2xVgznonwGj6toK36+cwBA8Cjh3gecAXA7Yj/ezvo//ShY/KaavabEAUjHheQdk/Rf4OEVoQ0FsoTcKkS7j7a2ieLHHzBwA8wa+L7xdzrWHsBgOGb/bgtkkh9MuxuGYSy/xsx9nbi7mfLXZhePepogHbNkuQ/UOYxB7zZDYzuPd+TwVfUAwZ28E0j1OXedRmAS6AT6aM0+G/Id5XqZghw7YhVtxRVeGvvzgycmSVFWdBPEbTXRBSMCUsAvJU9jc4sMLvciL/tk7Ig4CYTQtcIURVqYKrNx6qw61dkm0QxVNz9DoB7AGxTbB4MuhQzp2SKudex9nz4z1McpBPpr4fdR4MJMbYH8HD2VD4GbQt3KCjDIPHFMYCmZklZAfArAZWUAC5i65THAsRaJANwoWY8E9EJd2Yxi602RY+brthvirq1/+n3WznyvxYzlg/PL0ORhx0Bus8nbaiy6qRyFeTAfgPZzocGOgDyXxyS7xywEKImyABciPiro/WaUX8E+PQSc2IFXFDszY415yL3Kr3d1erV51W9jwavIcba+wF42RIV0+llee3fvHQYE0/PWoal20DY1v/m+nwKEGJrJaug89WSmqhpw+8BNJQht3syXbG/FXVns7sTg8/K51IifAfTFs0qdouT2ARhbuMKJN27wWjePJGBiU5r6hCvA38qpRAdWR8HkG3z/6N9c2MLdCLt/zfLKq8BWCVT58FmD05vCV3oir1Wlh6bvmRXnclMYaZ9iXgcCLuCMRqABeg9Il5qgV4N/lumofEFtAdvo9KJ1HHMKmsIQsX2cW9u00dBRo5wh6jROIXIJgH6FPo/69aA8Ayxvczrmvh4we1pZxVx0wdawmSyajwT7wDGjiBsC0IfmFcQaIVlLFNMT3vbrHyi2CmmvCTcURFgH8vYBeBdGDQaii0xlimFxZn1ehF69l5Z1jIH9sta8P5EPH5gYdSOALYDKAPYdwi0whKWK9DT3oa+JwreVz59ydBIn9l38x9bWN85YGbaOxLvPTBbWsZ6r2PexOVI9jYoyydkudv3QdSymhiJ92b9vcworERnQ28p3SkDcB6cROowBvUAGF2G7DJGm4uLrksE53D+e9RGaq2uNsD0avTToNcMRWRvYVbN2ZLZ0hlAaQMwE38762M08y8H/j/faQ+i/J6AielKEGf9HXIsP+4BxQ/AzYu3VVGbINgEMpmDABB9sDtkkxlqBnP/e3YLgu5136a42+E56qf+caiplYiPy56EKwH0D8AtqYlK8W8I2HezN/kjwPi8ZXUIgPwH4IS7j2Z8E73uiRa0ExjgD9r0Qfbc/x8MgKg/Xa8ZtQKJdLfR5ibMmZQuuk83EpnmHsCKT2LCMQDvZTeqA4E/7GNrAR01QCK9FMBDRNRRUpz55KImx6pvsutOs4Rdtvjn/LATBvqAAQZDRyPvIpGaZxTdhI7GhXmVZTLjLeGZQqpHhGutzwyMo+lKD7hCG54ExYVt+SSeY302F2jGHwxwVNF9CnkFnZNKpr7NoPtRnsEXINxW9B9jS2pHJv7vAu9qi8RTn6psL20lRj+rvI6m+QSksl9Ax6K1d+dis48kUp8kYP8sSW+ZjHcXAHDQugMudBtSGTUviKqEe7GOmn8T+GaA/h8K2cTM2ImJz1OeKW3xYFtqnFb0UP/gm53y+fKxhZaXd9HJdKcGvwDibwedN+tjBwBnaaMX6rh7aykL9SLx3gN1Iv0Xq/kfTDgbwF553ro7gFOYbXFx5pvdnXQiPVuzWjBQ7i4F5rA9QGdqixd1Ij27lL+PwUgGYD9T5zs6mf4lMf0c5XtTsMpsoCuKvdlRdDaAkQXeRpboRtmWVAZLt1UAsWXc5nNFVFnTWmz2Firr2gJi6tzoNZ7/36wKaQ64bWGjGhL5G4F/CGBUKHUA+qPReeoe5IjBzkEL2QY4idRhWnn/AiOB0j8nFYhP00Y/7yR7/19hbVo6TCfcmZbs3wGUfb95YB/E05/TUX4ewEkoacHpQB8AJ2lrnnda3IofYlIvZADOZvqS7fS4cX8Ao6zB9hl0PXpibxd1c/OC7Rko9On3AwfpePrEcnfTVmcXhwDARiO3AVib7RICnYl2LvzvqnnB9gAns6RYz+AXeeWR5xxwOUVaF03RRj9OjAOqXfbmVDRyBoin5HFp4ACs46lpDPojgHI/rY1jtg87yd4v53X1Ee4QPWTdfQOLPksdAAui4+njGXgQwJjy5ky7MvEDOul+tZrtqVUyAG+ubWGjk8k8BeCLZc75Nds39Npib3YikXNQytMFybakspk9/j8A7vBJneCk3UMLzVJFo20AhmVJ+hNuj+V5OlF1n4Aj8d4DrVUPoX8RTj7WgLAYwLMAXi9zdaIE5Lm2wv8JWMdTR4JoDoBoUA4MegFMtxFwLRF+DNCtAJ4GkCsYyjBm2xNJpibnqqUajYvByOdp8V309+mzxJSGX9S2PDnx9OEgzA06+KC/D7AAxP9HhOuI8GMCrgH4fvh8Of0QYQiY50nEPlmEtQkn6U5lw78JCnlWPL4SPbuvK+rW+KujmTacXWIFdlNrV59vgavK37atj1K4xdrsi9tYYQZ8g3ZkvYMU3G9kn8ClX+adDVVxH3Czu5Mlcy9A2+Vo2xsM/EwbdX9mYsPzm6x0jr86WtP6qQCOA+hE5Bj0gljQlwnY9CASwttg3MnAawAZBR7NwGEAZ5/GiacngNAFIOJTDAPcY9j5Lrr3drNe0dq7s2PNuQz6Nvyni0Yy01w0Lz3Q9zNhxjMRWsNBEdZeYcIsh9TdfR0NL26ROm3hXlrpqSA+fWA+Pj/TendnsvNy/FvcZSxfhrlN2cM/zlg+XK1ecwYpviRg3nyYJZqL5gX7o2ff1ZukWFoGxpZrAYhvAJA1HjQRrmNLT2VLU0wvAYDZZuX9WL3TFjsMNG14Cz5jIYMuIUbWL8DEtuQvkTIAD9DJ9MnMfAtK+BDww8AC29c4q9j7HbX+bGYqeW6NGJegbfGv/VeZinxlOhr/rhPpZwFsufWBcSySL41B5z55/YE6ifShDGrKkrTcLHvtnrwrxfmchlQeOsq/8IlV/SECXe+pdVegY/KarBXr3vM9A9wN4G5MX3KR7vN+DLJFLSTbbPGaIaYfe+/iStwX+/Aw9g/r0JbK+iGuQbcCvJ1PER5AJ5uuxs7AinQ0vOUBlyC+eJYiM4+AT2S7jIFJKrr+bAtkXZWr1476InxegRPwkqfWfQodk9f47u+ZN+kVA8wGMNtJpA4DUV6vvbVjbwH7PoAYgGaYrljwZ9nMsWstcAPaUndoQz0ADsp6HWNvJ+pc2H8wyEa6YqsM0LP55U4ifaXfLwczP2G6G+/2qfRAvaZkALy3xQUJ/zWxGvaRTHfT0/n0XTHkFXQzayeR/ikYs1CBwRcACLgYPUXG6Y2/OpqZzilTVYZp432/Em3cKjFm+qREFEfyjow1cJ7zFohpNh49xMs3n2qtgnbivYcA+FpwVehcryt2Qd4HPcwe/4bpjp1k1friYqN/JANws9cdu2zjwXcTc5qWbf4jnUgfBWL/qQPib5quWPDgu7HuvV3bl/kCwG/4Zgk+H9OXZN3bypY+5tu3jJ8WcoCG19X0iNfZeGGu65x4+nAwjvQtl/icnIPvxuY0LTOgLyNgWxuDzsEpi4oO51vvtu4BOOGO0tH0vSUsbsrHI6ar8d5ib1bUdxYQFP2oUJSUbUnlYTKZbgBZAx0Q+PS8FmO1pcaBcEy27D1H5f/6GQDy3AdcKibbnuOSn9tsB6Pno8STmZhwmelquruIW4MGqAdMZ+P/FZxjz77vghC0/WdH7WWy7mtW4IDFT1yeQCmb50oBfUD4s+1svLngTLtiq0B0fsAVo/QGmlaJ9tSDrXcAnrZwLwU8BuT3aqZIrMCXFH339CXbEbjc4STJkpyWVBY9+64GyO+paILT6x6WKwtl1KnIOhVEDxY+VVCFAbglNRHA5wKueNmodcX/zpfmWbsh9pOC70r2NgS1SRFdWuxZs2aDNw/ACt8LmI7JnkBBx04Wuh85t7bFewD4gn+RfHnRffDaa3cBeNO/PXRs2dtTJ7bKAdiJpz+ntX6awB+vaEGE2zNdxc8fKC9T5qffD/2XTrgtFW37VsIovhnI/uqXc21jmzrfIb+44ozCnn6BIs4DLpzS1Bx8Bf8otPOFma8rZqpHMftGM2LguUxn7B9F16l///YDAZX+TNafkvWfmGTVVu4v0MqYI+ETOIWAhV5n01+LzvzRQzww/ujfHnxma30g2OoGYJ1MtQ3sb8t360RxGBuMZ0p7+mVU8jCFH6P1+XxDWgo/HY0LQb5hDY/FtEVj/W7Vu409CtmDRiwzy1/7Q6FVsVXYB0zB22LeMe+qOZWug4/1JjP8t0W1CXywX5rq31ZTEmb8MyB5XLYIWcZG7offlibiQ3XCvTPa4u6LMgnqAwR+gcizDyiwD0Zh2qI9y9WWerL1DMDtrPoXW9Gvc+1vKwdS/AvMm/RKsferTOZbALarYBV3U2Z40ScyiY1Y8ls45ChN/oux/BZfEd9W0OKrD/Oryhzwgf5J9IjvwqdKY3qx2G1+BPjuyWVQ4Yc2bJE/vxSUHjXY8kva3AlvAhR0XOlxRvGLOuE+ppLpM0oN8chQFe0DlaMPHE3j8s1rMNk6BuDW50do1+2p8GKrjb3r2aHF77c9ZdE2hIo+/QIAiPg7A3M/ogQm09cD4K1saQTKvhirbWEjss+5GY+VX6jLYJUORdn/pLadXzLDFv+aslRk8wv0v7l2Vszw/RvQSr1SctVYvReUbkltl+3nhvlS9AfZCMAHE+MWbe1ynUg/rJOpY4uJxEbgvfzSlDKl9wEF9wFDlSfWfp0Z/ANw2+I9lB32OIDjq1UkAz9G957vFXu/2kDfRvYj6cptmDbeD6rVL4NWz7591L/nMpvxjtt7+OY/dKw+Hdnm3Ah/LPo4wApvQ4pyJDAsIRG9kW9e5Uag4v7e3N6RQW/E+jLeu4Vkl41yKDAyle/g0934MpE6GkA+x4lqAIeB6W7HdV9UCfdiTFu4V14VbF4QBeC7FShjVMl9kLEqODoXkwzAg05r787amL8GvWKqgGV2xMibir77lEXbEAKX7ZcZJZyW1GdKz2fr5vUvmsr6BMrMmy7Gmr5kKDNO9smq8MVXHxZU2TlgNiYwlCkxlRQCsbTK0eqi7os4weFZo1z6K3WbCV5gxP4hZr3OhieMUgeggHlYBiYR+Ida68U6nv4Nmt3gVdMjhgf3gVOGPnD6AvuAla3EYtOaN6gHYG3N9QCq+4qV+FLMHLu22NvVen0mKhIKM6DGiq7bWlchlk1348vwOwuYcPTGc3Q6kzke2f+NXzOvLSt+wUulX0HnWGXNnDWWdXWQLXzOHAAyXvDfqhct+U2UpUiOQBM5/t06Gt4ysdiRIMTBVMg5uQqEE3SUnwpcsLVm7VrA/982amzJfRDxcvRBCAeJ1IJBOwD3H3lFiSoX+6xpaMw/Ws7mTlm0DRHnjFhTAZ/W8d54COUOLsR+gQqiis1pG/131rUIzPhlUYuvPsqgoh9iGTZvBV6gbPn3p1ZaV2wVgPV+yQ5lSj4RiWFzvV5dlTOTdrKms3Gu6Y59cmAl+l1B9d7MXkbx7xF/NXs9+rdK+dbBQlW8D4hLO0CiXg3OAXjqfMcqvgmFHAheBsTqwk2CzRdIbVDfRHWffjeuvGxLKpEZ/v4f4DNfR0wnA0zRlkX7Afh0lks8SzS7pApU+ili5HaBR2kSq4kVLb9yfNtlWZccNY4ZgduFtLUFBVzxuhv/YroaTzCgXcCUBHAvcp/CNF7T+l/5vekin0WEAGCBkvvAquA+IFBFonvVukE5AKtxY88g4GOl51SQB7zuhvlF3928YCQFh8OrtHEODw2z/Po3c0qGGH4hCxuc+OKpVim/QBbFL776QKVfQfdPrfguyLFBsZRr2xK/BFJ8SKmZEwWclczY0PcfnSoq467YKtMd6zJdjUcb0F7EdDUCn4rpGB3vzXoOLwf1AVPpfZDjvGgvwy/mm9dgMvgG4GZ3JwJV+8g9o629qJQMVCTyDVQ6OEgOzHQR4i9tlRviy8VT3v8CyGRLY9hWC2SN/UugwuPsbs5W4zAGfsovhRiTB0JV1hUC/u7fXByR92ribJoXjATDN9IWiJ8ty97prthrXnfsMrJ0KIIGYcVfyl6NgD4gHDawba7IPlg6DMAxfskEuOiJvV1AjoPGoBuA9RD+PoBqL2nv6Js78V9F3928YCQFB22vlmGanKvDrkRd6z+C8L6saYSvE7K+invFizUUcH6wj0o/AQNgpvsCkpVWVH9vURhBh6U4WjmXFZu1ikROgf+5wGDQHwvILidvbuxJEPyjkfm8DidwUB8obdTlRffBkHVtCAoqxPT7cvZBPRlUA3AknvoUGKeVnlNB1hrN3y0lAzXEmYGQn3430iLbkkpDBL9taFnn2Bn0y1LWDnyUUeVXklqt5oER9MR2khN3v5R3hjXAa4w9hoBXsCA+VSdSRxSccdviPYgQdPynscZ0lb1BTL4BUYizn+Gc6W58moBF/plSUidTxxZcl+RLY4jxw6BLFJtfl70PCuP75sgSKhqha/AMwO2sLNTN1W4TgX+W7XzRvM1YPpyYSnp9Xe4msaIbi4mmI/p5nbGHiSmd18WMDdba4iJfbZlZ5bdydDS8BYWgD0zNxN2ReO+Beef5geYFUSQXNVW8DZtrJ8uEnwZcQQDd7iTdqXnn2bZ4D8eYBxEQ4AKMe/zC1eqEm0TrovHFNIfBvvHHLbFPuE5iS7gxOGPqdBLuF/OuyLRFYxU7DyHojSTTn0p6e1ge/iuwrcp5olkpBs2HrHZ7p4N4SpWLfcsbwiW9slWr15wBYJcq1zuXA3W6t9pbuAYRYgu+Nc9Lf4u5Te+Up1RUZS+lgdeO4K0z21uyj6mEeyaaWeeTZyTpfkJFI08qq46uRhs2Z1fQLQh6Cga2Ycv3Own36sAD5JtZ62TqNG3M0wwEfZmwWqt231TmQ7VVC5xE+iq0vJz/50PLy7sQ+Ey/ZAL5PuXa4atmERC0IGwEg3/vJNPXonmxf+CMdlY6np6utXrGZ8rlo/qQ+V7ebasQCjoukrgVLamKvZ10Ss+iBkxfsh0ymR+WnlFhmHA1Zk0sfv/ajOXDac37F1V5t1R+iH+I1ufvCu1ouTpnHfMrbfRVAIYGXUeKi498tUVmXIVFWOif506mzwFjVsBVQwl8sxN1z7EJ90bLmT+ge59XN7li+pLtdMY7HMRtlvko6j9wdm5V2rC5+2IbqHXRaWzVQ/B7MCEMYfAleoM6G3H3QSb7FEDvEcOywrbEmAi4R4Ep575ZYrqxr6Mh18rfYQx8V5N3IRKpOwD1O9PX9yf07LvlSvTW3p21NccA3vcA2s03R7LzfNNmTsmgJXUaFM2H/9gQZcYFOmq+hWT6YQb/DVa9R2DDCtuSpUa46aNA2V91b4LxK697YskHPZSKwf8EKOaTvK1S9JBKpi/yaN0T6Ji8BvGX9tTKOZQY+3ldjeeWUvagGICdvkw7E0reLF4IAlwzfNUvSslDrV19OpDHL2o4xjl26EUecEXYFalLcyatQCLVA1Cr3yXElPY6morfura5KkYTMp2Nv9IJ90CAvxVYJSBG4Js1OTcjkV7KhPfA8AjYBZnMLgCcaqzdzofXMfFPKpG6iEDX5bh0OIiPJQwcJE+FHVXPwD9MZmj+60YIQ/p/j7hVRyMGifQbAL0C2D4G7UTAzrB255xf5Ak9prPpnsA+mNv0mEqkziFQrnC6w8A4mkBHf9B44g//Tz6t6jUZXdLgVTZMj4Dwdf9uw/7MeFDzMCAxMLPEAAMFHxm6ubp/BR1JpiYz4dvVLpeJvouZUzJFZ9C8dBgxX1ztehfURtCFsi2peET6lqB0S3ZmYR/dOVRhFfTGTKzhv4n4hgJu2Z0Y+xHwCQDjUIMPALar6XoGXwpU5msBg16wWh9X7NGJ6D90YRzABwN0yEC8g5wPHwwsMLTu5NzZA7ar6WZmOq9SfQDgNW3tCejZe2WF8i+IGTmyE4RQtkHV+QDMZPu/qeU1z1TGcp8wnQ09peSgoutOq+Gn3w8M08r5UdiVqFdeZ8MTAQeRr7fazi5rgdU5D/gj7WS9zqbzQHQigKLjn9ca29X0QwBJ5BMiMn99DLrC9vVNwZy9C4p8VSoGnrMeHVPIdJLtjt0A0NcB/KeMVfGI+AbTl5lUAwuvPjJz7FqyiAMoPgxskep6ANbx9IlgVH3LDBEuLunJpXnpMAIuqXa9i8KY5iRTnw27GnXLUvbFWIQ7MWfSigJzCxZSQHvTGbtDw/wXgJL2MjPoBQ3+Sxht2KJNXY3dRuuPgzAPKGlx23owfmVAB9iu2JUDcZdzItDrZWjGe8S4ykYiB+H22OLC+yD2G6P5YwB3IHeoS3+MDQB3KOIpXmfTeejZt7iTqyrI6258GOByf+HIqeZeAeWtecFIUM65mgrg33qdTSUdPK6ia08BaEwpeVSTZboR7fzJsuxVrXEMLAUQyZr4plfwly6bUd06ak7CZn9rZPiWQvPqvxGzCcj6u0MGL+bzKUmMn0Ahmi3NY1tUOMy+rkkvAPhCpHXRFMvqFDC+CuS1h/I/AO4D8R22IfY7G/A7xkwPkeKsrwoZ6tmi+jPInL3/bYAWJHsvd5hPAfgYBvbJ4841AD/FRPdZw78qZpW71x27LJJ077T9R1l+DQXEiGdgARgz7VD7q5IWiQLAnKZlBmhD66IrHKtOtcAxAyubc030rgHwNDPdbzOYhZ7Gt4sfwQfaxVgKyv57S1AlLxY1XU13o9l9TEXtaQB9jYCPI/tnwX8A/B1EM0stswaX3+bHSaR+yKBqz6F6huzH0DmxuNitAHCEO0Rvz70Adis6j1DwdNPVFPaGeVFP+leLfoyZ9lRkdwZoKJg3WKLVxLTEWPsiXl/eW9IJUNXWvGB7Z6jeny3tzsBYRbQtLPos8A4R3lHKpjNLX3+urG2aOt+JjBt7gCF8mhiTADUe4B3QP/VmQXgDzEuZ1Ytam6czHRMLObKwcPFXRzvI7M/K7M6sxiri7TbpA7CbWbb8n3X175pN89JhiKwbE4EaDcs2A3oHZsg7Jczfb6E+B+DkoibN6l9A9m9DFfRL09X4jVIyUAn3TAKXHve3+t40oMaB49uEEEKUqC7ngLVVP0f1B9/3jVKlbRo/wh1CqO2VzwF2cRDKWcVCCDEo1d0ArOPuMSB8odrlEvFP0NHwVil5qO35ZAC7V7vu5cLABSWdDCOEEOJD9TUAz1g+HMQ/C6Hk170NXmkLvpoXRAm4NIS6l9NQrWVbkhBClENdDcBq9ZoLAexR7XKZ8D+lL50fpcH0ZrXrXoHe+HqkNf3psGshhBD1rn4G4NZF44m46mfmMrDAboiVflpNz+7rjON9mQC32m0oMzKM/5XTkoQQojR18yGqrboewLBql0tEl6KHSt3C1m/OpBWeR0eEFfasbH3COECn3baw6yGEEPWsLrYh9R+GTX+sesFMfzLdsbKfB+kkU59lSw/1B1mvW7ItSQghSlD7T8BHuEMI9NPSMyoYK9iKhIv0Opv+CuKTULlg59Wwi8Oo+pSAEEIMFjU/AKvt+WwGYqXnVCjuyXQ3PVWp3E1X0+0Maq9+u8qHic+TbUlCCFGc2h6A21LjCLi86uUyNhhV+YAZtqvhKgD1HN5xqHb0NWFXQggh6lFND8Da0DUARla7XAJuQcfEJVUoic2IVaejxFNkQsVoduLpz4VdDSGEqDc1OwA7SXcqgHgIRb/rYcj/VK20mVMyBnQCg14Ioa1lYRVulG1JQghRmNr80Jw637HMN4VRNIOuRfee71W10K7YKmu8rwKoy0AdxDhAu73Tw66HEELUk5ocgNW4cd8cOHOy2v5tI86NoTR63qRXlLJHof8czTrEVyPhjgq7FkIIUS9qbwBudncioHqvgDfGuAKzx68Pq+kD53hOA1CewB/VtYsD1OtJT0IIUXU1NwDrCK4GMLra5TLwD9MYmxN2+01X472M6ofcLAcGn49kb0PY9RBCiHpQUwNwpDX9aRCfEkpHMF2KdrJh9wEA2K6m68EUyhx4iaKa7Q/DroQQQtSD2hmA21lZi5tDqRPjIa879kDYXbAxk2k4B8Dvwq5HEb7mtLifD7sSQghR62omFrROpk4D060hFG0V8ScynU3Ph90HW2heMFJFI38lYP+wq1IIBp6zfbEpZTvEog5Fku4nLHPg/m4FOjLTFftb2HUVQoSjNp6A2xbuAKZwDnpn6qzJwRcAevZdbY39CoClYVelEATsryNb97Yky3w6+tcy+P7Pgs8Iu55CiPDUxACsjb4CwA4hFL3WOPbSsNsfaN7E5drSEQBWhl2VghBfjebF24ZdjVDMWD4cQEseV56I6Uu2C7u6QohwhD4AR5KpyQDODKNsAm7CnKZlYfdBLn1zYwuI1DQAXth1KcDOzhBTkdOkap1eveY4APl8+RimvMyJYddXCBGOkAdgJsvqZgA6hMJXeJFI3azY9Tob7gfxN8OuRyGYcS7ii0M4ySpkxCfnfylODbu6QohwhDoA64TbAvDBYZTNTD/A7PH/CbP9hTKdTbcR4bqw61GAqCYTztx+WE509wZwaAF3fDIST+8fdrWFENUX3gCccEcBfH1IpffaTN/NobW9BF5n7CIAc8OuRwGOd+Lpw8OuRLWoCMeRfXeBAWNDtnuYcFLY9RZCVF9oA7ADvgygXUMpnPly9OzbF1bbS0Ns+oadCuDJsGuSL0u4Ds0cxjRDdTWzJsYMn9TnQPh7tgQGpqN56bCwqy+EqK5wBuCW1EQGzgmpzU+a7sbbQyq7PHp2X2csfxVAb9hVyQcBk3U0HUqEs2pyhriHAtjNJ/kJAj/hk7adjq47Luz6CyGqK5QBWCv6OYBoGGUT42KAOIyyy2pu0zvG8tEAqnt0YtHo+4N9WxIzt/k3H38Gq0f9b8b0sOsvhKiuqg/AOpE6DkA4c4KE33vdjX8JpexKmNu0iBjH+s0t1pidnaip7T3XpYi/Ohqgr/mkrjRO5A9eY8NDAF7LegXhcDnIQoiti1PV0lqfHwFLN4bUVs8YviiksivXqO7Gv+h4ajpA3aih0KLZMHAO4otvQ/febth1KTdFfS0Ahvok3/PBMZeUTM9jxgVZriHH8skecFnYbdmqtbNC2t0rAjU6A1qFxgmLSz6kpXnxtpGIGc/AjlBqrUf2PejIe3jTew/3xerhy7OokKp+YDvJVDszXRFSU281XbEZpedTm8Lt24Lcbboajw+7EuWm4+7TIJ6SPZWPNF1N9wFAtGXRfkYpn9Cn/IYZ8f4emDklU1QdkqnTAPpiJdvJwAu2s/GqLctOz4XPfn4DdSk6Gwper6AS7veI+GNZEy3PNt1Nfwy630mm2hm0T173J9zdNPgyAM3YNCrf6wTb7HVNfLyQukeSqcnM6kQLPpKA/ZDts5axAYS/MuFBa7070L3Pq4X2kahv1XsCjqcnMCOsc27XGMrUw+BUNK+z8X90vHc8KGAesjYc5yTTX/A6Gx8KuyLlEkmmJlv2G3zxllm2/MO29s2d+C+VTP+LGPtteSntqt/f9ssG+H1RFWEcgP4BpGLI76xuxgkAIln7h811xXyjIMbn4bOnmkGP5e4Omor+PLZMU/ThgKqT6a+AuRPAdlkuHcOsYgDyGoD7fxfoGsv4IsDBTziEIQAOJ8bhmpyrkUzPMhv0RejZu77CzoqiVW0OWBP/BP6v6CqKwNejc5/Xwyi7iq1kM3LlaQAeCbsmuVjGtYNpWxIzTQ9IvguPHrJpCFGLDt+rlZXIWPkgLstJW06L+3lY3Insgy8AgAnb5M6JScXT37VMzwAo5i2EA8YMHTX/GAjPK7YCVRmAdTx1JEDHhNNEfsPr864Np+wqmzklY/r0CQy8GHZVghAwWUfcwTHQHOEOYaDVt62W5m3+M2ttNwCfAYS+gmmLxobdLD8M+kPYdeiviCptXhYAWl7ehTX3DDyJ+iMOHoCnznd00u0gwlUo/a3iBMs0X6KjbR0qPwAf4Q4B0U/DaiCzuhI9+64Oq/yq69l7pVX2qwDeDLsqgRS+PxhOAtI78FHwP8lrmdfU8Nctfjpv4nIw/uRzj6M01WpkrFm2K3Zj2JUAACgueQDWZL4Lxk65iwp4Am5npXcb1wFGooytG20Jv0PLy7uUMU9Rgyo+AKvtcS6AULZXEPCSzTTMDKPsUHVMXKKUPQrA2rCr4ouxk+Nl6n/FL8P34AUivsN/BS35voYm0GkAF7xAkoB3ALxcwv84IO+Fpi9zdnU7N6itpb2CVsy7gjivRZkM5TsAO+neq8CYFnD7vQA1G+vsarpiynQ1kmFvL2Y6D8CKgPt21+TVZbhckb/KroJuW7yHNmYhgOHhtI6PM51N94RSdg3QyfQJYNyB0E+98tVntPk45kxKh12Rokzr3V1ruwQ+q38V86cz3U1PZb239fkR2g57A8DIbMnE6lCvu2F+tZqiEqnzCeR30Mcqw3pK0PYxnUj3wWcRVmA/BNBx9xEQ+xxsQaeartiswPuT6Uf9FmEBeAXAXhv9NwP8AJhuJ9DrrNgB81iAjgJjhelu3CKSm9OS+gwr+jOy/32tBvOJgSu1W3t3VtY+QMD+fpeQpf/nzY3VTdhZUZiKroLWxvwIoQ2+eGxrHnwBwHQ23qmS6YuJcU3YdfER1UZdY4Bjw65IMZQ2SYD8FpP1Bg46HZPXIJG6B6BktmTuX4xVlQHYSaY+y0wBp1bxjJrbu80lv4Lea6P//00CtXldjQ9mue5WTF+y5eLRdlbWdW+ibIMvYwOR/bLXnWPrUkfDW7Yl9QWt8AxAe2ZtpuKzUEdx30VhKvZk5MR7DwHQElK7WFk+P6Sya4rtbLwWoBp+lUXHOAm3ontXK4NJgfxfPzPdkbPlUP6roRkn9EfXqrDkS2O4/y1J9i/jhJmmq6kGY6dTWVZBA/yGsTzV64o96HvJQBCVjWk33UxA1tXKTHx+3vuG5za9AyDonO+jcYQ7JK+8RN2pzAA845mIJfvzENt1ZzGvvAYr09dwNqjIvaVVwTdg6vzqRmUrkZNMf4aBmF+6Im9erjy8WMPDAJb5JA9Van05F/ZsqZm1Zqfb71QyBv5hnEjNzPtupvRV0IAlq47H3KZFhd+qzsr6Y8Jiu2z5LwvJyXQ13o/+OfhsRka2t/sVkp+oHxUZgNXaUWcSsG9Ibeoz4QX8qE09ZEzUJhh4LuyqZMPAPmrcuNPCrkdBdbb+T78MLOjrmvRCzkzayRIoYKCm0yvZBifSeyWAqT7JKy2pE7M9/dWEMqyCBrirqPnV1kXjAT44WxKBO7fY950TMUC++/cNqymF5CbqR/kH4ORLY4hxZYht+iW6G18uPZtBZtbE962xXwGwNOyqZEOEK+tmW9Ipi7YB4eu+6YycT78ftdv6r4Zm7BdpXVSRD1+dTB3LxJf4t4FOLyZ8ZPWU/gpaqeKmZhSroCmTogLhMPEC35YSS2COQarsr/00O98HMCqk9qw0lsMc/GvbvInLdWvvkcbaxwDU1tGAjJ2cPu9yD6j5uXu9QTcDPMKvJdbQ3HzzynQ2Pe8fmhKwVp0K4JmyNiCengDGLPjuguBfmO7Gnkr0Xdlwya+gl2U6YkVNUxHjv/zSPOLXipq7t319Aaek5tyrLOpTWZ+AIwn3vwD/fZGVxsTXDCxqED76OhpeBLgFQIGvySqPic9C28LGsOuRE7H/7zjTs7g9trjAHDsD0uKYsbx8Owmalw5ThLvgF9MZeNa8q84rW3mVUvoq6GdLOBe8yS9BW/Wypg3vFvo/Iv5FQHlhPdCICivfE3AzawP3ZgrvSLyldsPwG0Iqu66Yrqb7dCJ1JkC1FqQkoq2+zgBfDbsivpK9DWB7sG86MTvJ9I8KyBHM2DUgeZRes+Z4EzxI501H1/0EPqt3Aaw0Hp1YF0fklTgHTECqhNt3LeHeYuQRi1rUo7INwDqaPgWgT4TXFGpHz+7rwiu/vpiupluduDuRiWvraYdxtBN3v+R1xx4IuyrZOGxOZVDQl8xPMuOTZe6UGSjDAKwTqZMAfMOvEFhqLeLpPRxGlTQHbAnvl3B7pIR7i1Hsk7qoceUZgJsXbwuYq0rPKCsD4E0wLYfi18FYzkyvE9nlAL2uDC3LOJk30DCptmMf1yCvseFC7bp7Aait83mJf4Kp8ycXvpq0wqbOdxiYHkLJn0VrehI6GhcWm0Eknt7fAv/rl07Az725sRreqrYZXeIraEulxIfvq3JrB/lJbluvsgzAOmp/AKDQwOHvE7CUgeUAv05Eyy3wOllaTmxf94iWIzPs9VxPtWXajb91aidrmpcmdXTdIwAOCrs6H+jflrTbDAv8ovTcykfvNu5L4Kq/fgQAOBYne8BFRd2ccEcx+A4Aw3yueNIbseqCMNpVtFLngEt7hf1eQFrZd2AQsKD0XEQtKnkA7v9mzRu/1lpNwL9LHVhFlfTsvs60pL6qFT2JkA7NyIbAV6Ft4e2YM2lF6bmVicXJYa1wYOAkzHjmMsycUvDZ9hr2Vgb5BQ1ZYbSeVky+ededVXFnP5Md6rekhFDaK+gS+Q7AZsTIj2Pm2No9BEXUlJIHYGYaBoXjFfGbGeLXMPT9tyr5xywqYG7TO6Y1/VVt8Tj8V8dW2/aOVZd5QG3MUTe7O4H46BBrsLNePepoA9xVyE0qmT4b7LtnmQFMx5y9/12G+q2D39yoKnIREdEuvrOfpa+CLh7hPd96rVq5M/oPehAip5IH4A8iycir4HrFhOTCXSPAKEuYBw6MS1vdmlk6Eye6N9fCwiAV5WkAor51ZTqPgNdKai9hJwL7B4dQmI4CBmCnJfUZZlzrl05MN3jdsXvL1EWr4LNdhmHHFJxb84LtwRjvm65taAMwMS9knydz7TifMjIAizzVVfxdUaCp8x2MHbeHA0xgxWPZqjGkeAIYEwgYy8AYwB0NdmBrcZ0lYYh2+EYDhPnk+YGgs2N7bXesLFvgVCJ9KgHZdxMwvoK2xXvk9cTa7O7EiufCd8UuPe4tf61sIVsZWEnAbllLAu0P4NeF5KeHRL4EDohT4OnQvvMz4Z8BT+ZfApDzIA4hABmA61c7K6TdvRzmsUxqDAMTFPFYJowBYwKACRh4ncwAwAQi/nBDQy2Otz6OcpK9X/Y6G+4PqwKRROqTFviYXzqBf1O+0qgDYL/tfEoZO90iR6jXZtY60jsPPgMigHeMoZZyrjInYAl84r8zcBTA5xUU+IJxVmB6iE/Axok+qjMZD9k/P+OIv3Qluvd5Naz6ifohA3CtmrZobEQ5Yyx4Aiseq4AxDEwA01iAx8B1dwMhykQA+l+I9Q+0YVe8Atj+BDOeeSSstQWW6OSgfiWmsh3XZxV1a8vXwOfJlcAno52/j3byHYCcaPp7DPI5yB4M5pMwr6GsMcGJ+FlmOsonuUEn3SNNJ/6QT1466X4dzMGr8sOcA549/j9IpB8A8JUsqUM1OTeZZj4WPeU6MlEMVjIAhyHhjoowxSzzWBCPIYUJzDwWoDHof3IdC2CoHQh3u9GDKwbnCBuMgUlqzTYzLFD9c41nLB+ONavjfskELMp0Nz5XtvI6Gt4a+HD3G8z2ctzewz0g6/m1OpE6gkHfDajvtV530x/L3U0MejrHBT/D9CXPYvb4N4Iui0xzD7DMOf+dCeG9ggYAInUTs/2KT/JROurONFPnn1HcWwYmnXSnA1hlOhvvDLOdorJkAC63GcuHR99fM94Sj2FgAikey6Axm8678mhL/OEOC2YgvAie9YFAV6Ft4bxqb0vSa1Yfi+CDK8r4+nkA0xwQH+WbDHsqsg3AbalxMDQb/jHe/w1L90TivQcWW7WMxlJ0NLy1+c/NhsxDekjkbbDvwQETdCbzOCXT3/A6Gx/aIrX1+RHKDP+2Jb4cgN9BFxt1QnivoAHA62y4XyfTfwbj8z6XnKLHjYuZZO8p+Z8qxeQk0ocy3IvBOBzEFT2OUoRPBuBCNLNGxN0zy6KmsQD6n17XrB5tNvr4Y/5oYN36nl3LarTj6cs94Jwqlxt4uIhSqmyvnz9gos7vdSbzHny3hNGxaHZ3Qk/s7Q9/dIQ7RBu+C8DOAVnvwYqf4BJ+E5Wlcy1w4xYJPfv2UdztyBHadAIzHnQSaZeBvxLhbVgMZUIDLA4B8caHTrwDYEffnEqNhFUGxurTNZl/ABjpc8lnNdtFSKRvB9M9RmUeQ+c+m0a1al4w0olEDwbwOaD3awyq/cNIRNnIAPyB3IuaxgLujgAi2RY1icpjwreiLe6tfXNj1YkMFE9PAHCYb32ABf2nS5XZ7PHrkUjfAeAMnyuiKoKkBT5cea1H4zoAn6pKv/jwNP1YW25D0MAJgIEYgBgzAl780LkA+56VjEy4r6ABAN17u0i6CTDfBcAv2IgGEAdxXLMDJNIWwMqBtG0AOKV8IRL1besZgOOvjo4gM8F3UVPaHQfCkK1iUVP9cozma5B98Uv5C1Pcxhxw8AJTxc7MJdgOhvIbgKGIZ3wwAOt46kgQf6safRKoo+EtJN1vgXkeSphTIdD1XsT5jc5k/AdgJ9xX0B8wnbHf6bjbAnAHCEPyuEWhdoLdiJAN7gF4xjMRrBoxziG1G6NvzAd/scT8BjOtA/DyJiMsA6ywLSxtMYemwCOgsgRiYAxhwvAsP3dAPhGA2PcPcBtk+TchYBgDQ7NcH0X2+TKF4HnL+sU40kmkDvO6mh6paDntrNhNTw+6xCozr1LFe10TH3fibpqJs76SZGCi0+Ie5M2NPcmEySEeA7oJ0xm7QydTo8B0C/yfCn0R00+87oYLMf2VIcHX1cYADACmO9YTiadetcAdAO1ZpmzXEGNJ2G0TlTW4B+D+bSuveGWITFMzf+2lal68LSLOlot0qG8EmLf8gkE0NMK0ZRB/bR022b9gMCj7FwzCNmDe4neOiYaDszw9KI6qLF8wmH33t5aN46YP4YAPUyb8C50TSzlTNicLdBPQ7lsHbU8F8GSl+6JQprPpNifeu5jJ/hjI+2jGV0B8rtfVeE//f+YYe6xTU3+Sme6mp3DKoo8769XFTPzf8J8XzmU9QB2GMldsMV8sBp3BPQCLLfXsvdInxTfAfJiBvcP6lCVgFTP8XwFbfqnSdbPW3KqV8v8QJnq//zrcrYnyXGlbYp2gnsvnOq+7YT7An3ZaU4fAqi8xcAiAcWDssNGr2uUAngBhnnlt2W832bKzZq8MIq5v//cNcZblrISh60HcnS3JUeqJsp8pOGvi+x5wGVpSNyhSpxLxCeiPahb0JiBDwMsMfh6g3xrQveiKrSp31URtqonXVkIIMSidsmgbZ53+GCuMG1haAlL0Pgyv9LR5F8NXvyyH1wghhBBCCCGEEEIIIYQQQgghhBBCCCGEEEIIIYQQQgghhBBCCCGEEEIIIYQQQgghhBBCCCGEEEIIIYQQQgghhBBCCCGEEEIIIYQQQgghhBBCCCGEEEIIIYQQQgghhBBCCCGEEEIIIYQQQgghhBBCCCGEEEIIIYQQQgghhBBCCCGEEEIIIYQQQgghhBBCCCGEEEIIIYQQQgghhBBCCCGEEEIIIYQQQgghhBBCCCGEEEIIIYQQQgghhBBCCCGEEEIIIYQQQgghhBBCCCGEEEIIIYQQQgghhBBCCCGEEEIIIYQQQgghhBBCCCGEEEIIIYQQQgghhBBCCCGEEEIIIYQQQgghhBBCCCGEEEKIivv/aB+JdtZ+MC4AAABSdEVYdGNvbW1lbnQAVGhpcyBpbWFnZSBpcyBmcm9tIFtWZWN0b3JMb2dvWm9uZV0oaHR0cHM6Ly93d3cudmVjdG9ybG9nby56b25lLykuICBFbmpveSHUiVybAAAAJXRFWHRkYXRlOmNyZWF0ZQAyMDE4LTAzLTA4VDIzOjEwOjM2KzAwOjAwYwolUwAAACV0RVh0ZGF0ZTptb2RpZnkAMjAxOC0wMy0wOFQyMzoxMDozNiswMDowMBJXne8AAAAASUVORK5CYII=;" parent="1" vertex="1">
          <mxGeometry x="30" y="270" width="160" height="80" as="geometry" />
        </mxCell>
      </root>
    </mxGraphModel>
  </diagram>
</mxfile>
